<svg xmlns="http://www.w3.org/2000/svg" width="127.048" height="131.582" viewBox="0 0 127.048 131.582">
  <g>
    <path  d="M65.1,150.817V59.376H89.679V73.361l.388.1c.362-.494.737-.979,1.084-1.483,10.912-15.838,37.157-17.082,49.357-2.317,4.437,5.369,6.542,11.7,7.273,18.522a82.562,82.562,0,0,1,.388,8.613q.051,25.8.017,51.6v2.444H123.2v-2.366q0-22.073.005-44.146a25.9,25.9,0,0,0-2.076-10.889c-5.078-11.211-19.121-12.985-26.863-3.39a21.4,21.4,0,0,0-4.549,13.88q-.025,22.269-.009,44.538v2.348Z" transform="translate(-21.141 -19.26)" fill="#fff"/>
    <rect width="24.735" height="91.428" transform="translate(2.133 40.125)" fill="#fff"/>
    <path d="M14.387,29.351A14.468,14.468,0,0,1,0,14.628,14.553,14.553,0,0,1,14.325,0a14.675,14.675,0,0,1,.062,29.35" transform="translate(0 0)" fill="#fff"/>
  </g>
</svg>
