<svg xmlns="http://www.w3.org/2000/svg" width="151.624" height="123.726" viewBox="0 0 151.624 123.726">
  <g>
    <path d="M147.488,2.524A32.04,32.04,0,0,1,134.295,19.4a42.439,42.439,0,0,0,8.758-1.669c2.859-.865,5.672-1.877,8.572-2.846-.786,1.081-1.543,2.173-2.352,3.224a62.445,62.445,0,0,1-12.6,12.347,1.05,1.05,0,0,0-.475.967c.025,1.824.051,3.649.021,5.472a84.712,84.712,0,0,1-2.984,20.6,92.473,92.473,0,0,1-15.42,31.839,84.469,84.469,0,0,1-30.848,25.657,85.274,85.274,0,0,1-26.092,7.84,101.192,101.192,0,0,1-11.384.873,86.81,86.81,0,0,1-39.985-8.547c-3.065-1.467-5.985-3.239-8.971-4.873A1.987,1.987,0,0,1,0,109.846c16.882,1.566,32.089-2.652,45.581-12.96A31.589,31.589,0,0,1,23.2,86.414a29.677,29.677,0,0,1-6.438-11.133c2.347.105,4.638.267,6.931.293a24.03,24.03,0,0,0,6.755-1.009c-9.5-2.332-16.659-7.7-21.249-16.355A30.468,30.468,0,0,1,5.734,43.523a31.479,31.479,0,0,0,14.052,3.884A31.077,31.077,0,0,1,6.793,28.444,30.937,30.937,0,0,1,10.17,5.774C27.079,25.7,48.42,36.593,74.49,38.408c-.178-1.113-.359-2.044-.473-2.984a30.611,30.611,0,0,1,7.139-24.358A30.062,30.062,0,0,1,100.853.284,30.568,30.568,0,0,1,124.816,7.15c.88.712,1.7,1.508,2.509,2.3a1,1,0,0,0,1.023.3,62.967,62.967,0,0,0,18.185-6.876l.838-.473.117.122" transform="translate(0 0)" fill="#fff"/>
  </g>
</svg>
